<?xml version="1.0" encoding="utf-8"?>
<!-- Generator: Adobe Illustrator 16.0.3, SVG Export Plug-In . SVG Version: 6.00 Build 0)  -->
<!DOCTYPE svg PUBLIC "-//W3C//DTD SVG 1.1//EN" "http://www.w3.org/Graphics/SVG/1.1/DTD/svg11.dtd">
<svg version="1.1" id="圖層_1" xmlns="http://www.w3.org/2000/svg" xmlns:xlink="http://www.w3.org/1999/xlink" x="0px" y="0px"
	 width="130px" height="46px" viewBox="0 0 130 46" enable-background="new 0 0 130 46" xml:space="preserve">
<g>
	<g>
		<path fill="#FFFFFF" d="M15.569,43.992c-1.354,0.045-2.006-0.605-1.959-1.958V30.011h7.907v1.677h-5.808v9.718
			c-0.047,0.745,0.256,1.095,0.91,1.048h4.409v1.539H15.569z M16.06,42.104v-1.747c0.7-0.604,1.259-1.212,1.679-1.817
			c-0.886-1.443-1.424-3.495-1.609-6.152h1.959c0.14,1.725,0.373,3.076,0.7,4.055c0.373-0.932,0.63-2.282,0.77-4.055h1.89
			c-0.28,2.751-0.816,4.778-1.61,6.082c0.42,0.606,0.98,1.235,1.68,1.888v1.747c-1.12-0.744-2.029-1.491-2.729-2.236
			C18.089,40.612,17.179,41.359,16.06,42.104z M29.425,45.18c-2.053-1.164-3.429-2.609-4.128-4.334
			c-0.84,1.772-2.239,3.238-4.199,4.404v-1.817c2.1-2.004,3.079-4.869,2.939-8.599v-1.119h2.379v1.188
			c-0.14,3.59,0.863,6.408,3.009,8.459V45.18z M21.448,36.022v-1.817c0.885-1.212,1.399-2.867,1.54-4.964h2.309
			c0,0.14-0.024,0.373-0.07,0.699c0,0.28-0.024,0.488-0.07,0.629h4.129v4.404h-2.029v-2.657h-2.589
			C24.2,33.715,23.127,34.95,21.448,36.022z"/>
		<path fill="#FFFFFF" d="M42.203,31.688V29.87h15.395v1.817h-4.199v11.186h4.479v1.607H41.923v-1.607h4.548V31.688H42.203z
			 M43.812,40.146c-0.7-1.863-1.189-4.1-1.47-6.711h2.24c0.233,2.424,0.653,4.661,1.259,6.711H43.812z M48.99,31.688v11.186h1.819
			V31.688H48.99z M53.958,40.146c0.653-2.097,1.05-4.334,1.19-6.711h2.309c-0.374,2.891-0.864,5.128-1.47,6.711H53.958z"/>
		<path fill="#FFFFFF" d="M72.054,45.18v-9.717c-0.56,0.234-1.119,0.42-1.679,0.56v-1.469c1.539-0.932,2.542-2.726,3.009-5.382
			h2.519c-0.466,1.911-0.956,3.262-1.469,4.055V45.18H72.054z M75.413,33.156v-1.679h4.059v-2.306h2.449v2.306h4.129v1.679h-1.33
			c0,3.542,0.56,6.291,1.68,8.249v2.097c-0.933-0.932-1.703-1.933-2.31-3.006v1.538h-2.169v3.146h-2.449v-3.146h-2.239v-1.468
			c-0.56,1.025-1.307,2.004-2.239,2.936v-2.097c1.166-2.098,1.703-4.848,1.609-8.249H75.413z M78.771,33.156
			c-0.046,3.215-0.536,5.639-1.469,7.27h2.169v-7.27H78.771z M84.021,40.426c-0.887-1.537-1.354-3.96-1.4-7.27h-0.699v7.27H84.021z"
			/>
		<path fill="#FFFFFF" d="M99.178,31.897v-1.677h6.508v-1.049h3.079v1.049h6.438v1.677h-8.396c-0.747,0.56-1.586,1.096-2.52,1.607
			c1.819,0,3.079-0.023,3.779-0.069c0.839,0,1.655-0.046,2.449-0.141c-0.094-0.092-0.21-0.254-0.351-0.488
			c-0.187-0.186-0.326-0.326-0.42-0.42h2.31c0.793,0.84,1.517,1.864,2.169,3.076h-2.589l-0.21-0.629
			c-2.1,0.187-4.805,0.304-8.117,0.35h-2.379v-1.679c1.213-0.604,2.075-1.142,2.589-1.607H99.178z M100.857,45.18v-9.228h12.806
			v6.991c0.094,1.491-0.63,2.189-2.169,2.097h-1.89v-1.538h0.7c0.56,0.046,0.816-0.186,0.77-0.698v-0.28h-7.628v2.656H100.857z
			 M103.446,37.49v1.049h7.628V37.49H103.446z M103.446,40.007v1.049h7.628v-1.049H103.446z"/>
	</g>
	<g>
		<path fill="#FFFFFF" d="M36.22,24.122c-1.391,0-2.747-0.214-4.027-0.637c-1.273-0.42-2.351-1.041-3.202-1.846
			c-0.851-0.803-1.499-1.778-1.926-2.897c-0.432-1.126-0.648-2.325-0.648-3.562c0-1.238,0.213-2.436,0.632-3.563
			c0.418-1.12,1.089-2.143,1.996-3.038c0.908-0.897,2.048-1.597,3.387-2.08c1.346-0.486,2.768-0.732,4.224-0.732
			c1.359,0,2.682,0.22,3.935,0.654c1.246,0.432,2.313,1.063,3.171,1.873c0.856,0.809,1.496,1.766,1.901,2.844
			c0.407,1.083,0.614,2.266,0.614,3.519c0,1.221-0.186,2.395-0.549,3.492c-0.363,1.091-0.988,2.131-1.86,3.091
			c-0.867,0.957-1.988,1.684-3.329,2.159C39.185,23.879,37.732,24.122,36.22,24.122z M36.538,10.508
			c-0.749,0-1.426,0.205-2.014,0.609c-0.588,0.405-1.036,1.003-1.335,1.779c-0.292,0.761-0.441,1.601-0.441,2.495
			c0,1.328,0.327,2.364,0.973,3.081c0.648,0.72,1.473,1.085,2.449,1.085c0.739,0,1.41-0.209,1.997-0.62
			c0.59-0.412,1.039-1.025,1.337-1.823c0.291-0.78,0.438-1.631,0.438-2.527c0-0.745-0.117-1.428-0.349-2.031
			c-0.237-0.618-0.628-1.12-1.167-1.491C37.889,10.695,37.254,10.508,36.538,10.508z"/>
		<path fill="#FFFFFF" d="M59.736,23.666c-1.265-0.022-2.383-0.033-3.355-0.033c-1.059,0-2.24,0.011-3.548,0.033l-1.732-5.593
			L47.185,6.227c1.171,0.02,2.266,0.03,3.283,0.03c1.083,0,2.107-0.011,3.069-0.032c0.202,0.832,0.567,2.2,1.087,4.074
			c0.558,2.007,1.178,4.11,1.842,6.86C56.488,17.244,56.561,17,56.645,17c0.002,0,0.004,0,0.006,0c0.083,0,0.157,0.252,0.182,0.169
			l0.436-1.296c0.062-0.16,0.325-0.831,0.783-2.151l2.614-7.537c1.155,0.023,2.248,0.053,3.28,0.053c1.01,0,2.06,0,3.145-0.02
			l-2.181,4.909l-4.302,10.316L59.736,23.666z"/>
		<path fill="#FFFFFF" d="M72.946,24.122c-1.353,0-2.492-0.197-3.384-0.587c-0.877-0.383-1.562-1.01-2.035-1.864
			c-0.479-0.863-0.72-1.735-0.72-2.592c0-0.521,0.09-1.04,0.265-1.539c0.177-0.503,0.455-1.001,0.83-1.482
			c0.377-0.482,0.824-0.901,1.329-1.243c0.51-0.345,1.217-0.676,2.105-0.983c0.899-0.311,2.055-0.608,3.435-0.884
			c0.585-0.118,1.12-0.244,1.609-0.379c0.502-0.138,0.852-0.256,1.069-0.361c0.226-0.109,0.414-0.24,0.556-0.39
			c0.146-0.152,0.253-0.315,0.319-0.485c0.063-0.169,0.097-0.35,0.097-0.537c0-0.513-0.21-0.913-0.624-1.189
			c-0.391-0.263-0.938-0.39-1.674-0.39c-1.859,0-4.167,0.532-6.861,1.583c0.175-0.967,0.29-1.655,0.338-2.048l0.251-1.915
			c3.132-0.708,5.862-1.067,8.117-1.067c1.295,0,2.494,0.154,3.567,0.457c1.054,0.297,1.888,0.782,2.473,1.438
			c0.577,0.646,0.868,1.594,0.868,2.818c0,0.64-0.083,2.116-0.248,4.389c-0.164,2.242-0.292,5.2-0.38,8.795
			c-1.031-0.02-2.058-0.031-3.08-0.031c-0.988,0-2.031,0.011-3.136,0.031c0.144-1.359,0.307-3.955,0.482-7.722
			c0.002-0.069-0.029-0.135-0.086-0.174c-0.031-0.022-0.068-0.034-0.104-0.034c-0.027,0-0.057,0.007-0.082,0.02
			c-0.418,0.207-0.744,0.356-0.979,0.448c-0.237,0.092-0.653,0.231-1.248,0.416c-0.606,0.188-1.081,0.345-1.423,0.475
			c-0.354,0.134-0.669,0.308-0.936,0.519c-0.271,0.215-0.47,0.443-0.587,0.678c-0.12,0.237-0.181,0.504-0.181,0.792
			c0,0.453,0.173,0.844,0.516,1.162c0.336,0.312,0.862,0.47,1.566,0.47c0.243,0,0.504-0.021,0.781-0.063
			c0.204-0.031,0.457-0.094,0.766-0.191c-0.287,0.854-0.622,2.009-0.995,3.445C74.622,24.048,73.755,24.122,72.946,24.122z"/>
		<path fill="#F77A00" d="M97.535,25.117c-1.232,0-2.432-0.129-3.568-0.381c-1.128-0.25-2.146-0.673-3.026-1.258
			c-0.871-0.579-1.515-1.267-1.909-2.049c-0.396-0.782-0.597-1.686-0.597-2.685c0-0.587,0.074-1.164,0.218-1.713
			c0.144-0.549,0.367-1.075,0.663-1.563c0.295-0.484,0.639-0.898,1.024-1.228c0.389-0.332,0.773-0.594,1.141-0.777
			c0.375-0.188,0.917-0.405,1.611-0.647c0.074-0.025,0.124-0.095,0.13-0.176s-0.038-0.156-0.106-0.191
			c-0.638-0.322-1.11-0.595-1.405-0.814c-0.296-0.217-0.583-0.487-0.857-0.802c-0.271-0.31-0.499-0.66-0.681-1.039
			c-0.183-0.377-0.311-0.772-0.385-1.172c-0.075-0.405-0.114-0.815-0.114-1.22c0-1.09,0.239-2.086,0.711-2.96
			c0.473-0.874,1.183-1.605,2.107-2.172c0.937-0.575,1.953-0.975,3.021-1.191c1.077-0.217,2.226-0.328,3.413-0.328
			c1.13,0,2.235,0.136,3.285,0.405c1.042,0.266,1.946,0.687,2.687,1.251c0.738,0.563,1.285,1.211,1.627,1.929
			c0.342,0.721,0.516,1.6,0.516,2.612c0,0.481-0.047,0.956-0.139,1.409c-0.091,0.448-0.235,0.862-0.426,1.232
			c-0.192,0.374-0.43,0.722-0.707,1.034c-0.282,0.315-0.581,0.594-0.895,0.831c-0.313,0.236-0.85,0.555-1.598,0.944
			c-0.07,0.037-0.11,0.114-0.103,0.196c0.008,0.083,0.062,0.151,0.138,0.173c0.703,0.207,1.248,0.395,1.617,0.559
			c0.359,0.161,0.713,0.386,1.05,0.671c0.336,0.283,0.626,0.62,0.865,1.003c0.238,0.384,0.414,0.795,0.521,1.226
			c0.106,0.436,0.161,0.902,0.161,1.383c0,1.126-0.268,2.217-0.797,3.244c-0.53,1.025-1.262,1.86-2.173,2.479
			c-0.92,0.625-2.004,1.084-3.227,1.362C100.098,24.974,98.822,25.117,97.535,25.117z M98.104,14.771
			c-1.049,0-1.883,0.284-2.479,0.847c-0.603,0.566-0.908,1.307-0.908,2.201c0,0.526,0.136,1.021,0.404,1.469
			c0.271,0.452,0.665,0.798,1.174,1.029c0.496,0.226,1.042,0.34,1.625,0.34c0.606,0,1.165-0.125,1.662-0.369
			c0.508-0.249,0.914-0.624,1.211-1.113c0.298-0.492,0.449-1.059,0.449-1.689c0-0.85-0.286-1.525-0.85-2.007
			C99.841,15.009,99.071,14.771,98.104,14.771z M98.522,5.175c-0.927,0-1.677,0.278-2.224,0.825c-0.55,0.55-0.83,1.233-0.83,2.031
			c0,0.479,0.123,0.925,0.364,1.329c0.244,0.406,0.589,0.71,1.024,0.907c0.423,0.19,0.888,0.287,1.382,0.287
			c0.857,0,1.586-0.266,2.167-0.791c0.587-0.533,0.887-1.233,0.887-2.082c0-0.755-0.257-1.371-0.762-1.828
			C100.033,5.404,99.358,5.175,98.522,5.175z"/>
		<path fill="#F77A00" d="M119.013,25.117c-1.23,0-2.432-0.129-3.569-0.381c-1.127-0.25-2.146-0.673-3.026-1.258
			c-0.871-0.579-1.514-1.267-1.908-2.049c-0.397-0.782-0.6-1.686-0.6-2.685c0-0.585,0.074-1.162,0.22-1.713
			c0.146-0.549,0.368-1.075,0.665-1.563c0.294-0.486,0.638-0.899,1.022-1.228c0.387-0.332,0.771-0.593,1.142-0.777
			c0.377-0.188,0.917-0.406,1.611-0.647c0.073-0.025,0.124-0.095,0.128-0.176c0.006-0.081-0.037-0.156-0.107-0.191
			c-0.633-0.321-1.105-0.594-1.403-0.814c-0.293-0.217-0.583-0.487-0.856-0.802c-0.271-0.311-0.5-0.661-0.683-1.039
			c-0.181-0.377-0.312-0.772-0.385-1.172c-0.076-0.405-0.113-0.815-0.113-1.22c0-1.09,0.239-2.086,0.712-2.96
			c0.473-0.874,1.182-1.605,2.107-2.172c0.937-0.575,1.953-0.975,3.021-1.191c1.076-0.217,2.224-0.328,3.411-0.328
			c1.129,0,2.235,0.136,3.287,0.405c1.042,0.266,1.947,0.687,2.687,1.251c0.736,0.562,1.282,1.21,1.625,1.929
			c0.342,0.721,0.515,1.6,0.515,2.612c0,0.484-0.045,0.959-0.136,1.409c-0.092,0.446-0.235,0.86-0.426,1.232
			c-0.192,0.374-0.432,0.722-0.71,1.034c-0.279,0.315-0.581,0.594-0.892,0.831c-0.313,0.236-0.852,0.555-1.598,0.944
			c-0.07,0.037-0.111,0.114-0.105,0.196c0.008,0.083,0.063,0.151,0.14,0.173c0.702,0.207,1.246,0.395,1.617,0.559
			c0.36,0.161,0.716,0.387,1.05,0.671c0.337,0.283,0.626,0.62,0.865,1.003c0.239,0.382,0.414,0.794,0.52,1.226
			c0.108,0.436,0.161,0.902,0.161,1.383c0,1.126-0.269,2.217-0.797,3.244c-0.529,1.025-1.26,1.86-2.172,2.479
			c-0.919,0.625-2.004,1.084-3.227,1.362C121.574,24.974,120.297,25.117,119.013,25.117z M119.58,14.771
			c-1.048,0-1.882,0.284-2.479,0.847c-0.603,0.567-0.909,1.308-0.909,2.201c0,0.525,0.138,1.02,0.406,1.469
			c0.27,0.452,0.664,0.798,1.174,1.029c0.495,0.226,1.044,0.34,1.625,0.34c0.604,0,1.164-0.125,1.662-0.369
			c0.507-0.248,0.913-0.623,1.211-1.113c0.297-0.492,0.447-1.059,0.447-1.689c0-0.851-0.284-1.526-0.848-2.007
			C121.317,15.009,120.548,14.771,119.58,14.771z M120,5.175c-0.93,0-1.678,0.278-2.226,0.825c-0.55,0.55-0.828,1.233-0.828,2.031
			c0,0.479,0.122,0.925,0.363,1.329c0.243,0.406,0.587,0.71,1.024,0.907c0.424,0.19,0.889,0.287,1.38,0.287
			c0.859,0,1.589-0.266,2.168-0.791c0.589-0.533,0.886-1.233,0.886-2.082c0-0.756-0.254-1.371-0.76-1.828
			C121.511,5.404,120.836,5.175,120,5.175z"/>
		<path fill="#FFFFFF" d="M15.642,23.466c-0.508-0.992-0.889-1.72-1.141-2.18l-2.709-4.781c-0.868-1.519-1.695-3.025-2.46-4.48
			c-0.496-0.903-1.007-1.902-1.527-2.97C7.744,8.925,7.613,8.843,7.472,8.843C7.227,8.889,7.106,9.036,7.1,9.208l-0.348,7.941
			l-0.155,6.313c-1.156-0.018-2.051-0.028-2.685-0.028c-0.541,0-1.51,0.01-2.912,0.028l0.285-3.094l0.582-11.94L2,3.616v-2.24
			c2,0.018,2.911,0.029,4.104,0.029c0.873,0,2.112-0.011,3.665-0.03l6.796,12.798l0.95,1.901c0.063,0.127,0.195,0.21,0.334,0.21
			c0.241-0.045,0.361-0.188,0.372-0.357c0.123-1.892,0.248-4.55,0.375-7.901c0.115-3.081,0.179-5.315,0.189-6.647
			c1.151,0.018,2.088,0.027,2.806,0.027c0.336,0,1.254-0.01,2.756-0.029L23.994,5.95l-0.728,13.877l-0.087,3.636
			c-1.264-0.018-2.451-0.028-3.563-0.028C18.647,23.435,17.322,23.446,15.642,23.466z"/>
	</g>
</g>
</svg>
